{"title":"Wer.2013.720p.H264.AAC.5.1ch.MP4.Raven","uid":10991207,"size":863398645,"categoryP":"video","categoryS":"hd___movies","magnet":"?xt=urn:btih:371c2eda10cd62ef3930a6884f2fd900570644ca&amp;dn=Wer.2013.720p.H264.AAC.5.1ch.MP4.Raven&amp;tr=udp%3A%2F%2Ftracker.openbittorrent.com%3A80&amp;tr=udp%3A%2F%2Fopen.demonii.com%3A1337&amp;tr=udp%3A%2F%2Ftracker.coppersurfer.tk%3A6969&amp;tr=udp%3A%2F%2Fexodus.desync.com%3A6969","seeders":0,"leechers":0,"uploader":"Raven1969","files":-1,"time":1410011506,"description":"Wer.2013.720p.H264.AAC.5.1ch.MP4.Raven.\n\n\n\n\n\nScreen images:\n\n\n &lt;a href=&quot;\nhttp://i.imgur.com/sfV7TOr.png&quot; rel=&quot;nofollow&quot; target=&quot;_NEW&quot;&gt;\nhttp://i.imgur.com/sfV7TOr.png&lt;/a&gt;\n\n\n &lt;a href=&quot;\nhttp://i.imgur.com/R0XxO5D.png&quot; rel=&quot;nofollow&quot; target=&quot;_NEW&quot;&gt;\nhttp://i.imgur.com/R0XxO5D.png&lt;/a&gt;\n\n\n &lt;a href=&quot;\nhttp://i.imgur.com/8BgblUD.png&quot; rel=&quot;nofollow&quot; target=&quot;_NEW&quot;&gt;\nhttp://i.imgur.com/8BgblUD.png&lt;/a&gt;\n\n\n &lt;a href=&quot;\nhttp://i.imgur.com/J5t8JdG.png&quot; rel=&quot;nofollow&quot; target=&quot;_NEW&quot;&gt;\nhttp://i.imgur.com/J5t8JdG.png&lt;/a&gt;\n\n\n &lt;a href=&quot;\nhttp://i.imgur.com/3cMHzMs.png&quot; rel=&quot;nofollow&quot; target=&quot;_NEW&quot;&gt;\nhttp://i.imgur.com/3cMHzMs.png&lt;/a&gt;\n\n\n\n\nIMDB:\n\n\n\n &lt;a href=&quot;\nhttp://www.imdb.com/title/tt2229511&quot; rel=&quot;nofollow&quot; target=&quot;_NEW&quot;&gt;\nhttp://www.imdb.com/title/tt2229511&lt;/a&gt;\n\n\n\n\nIMDB Rating:  6.0\n\n\n\n\nStoryline:\n\nA defense attorney begins to suspect that her client, who is charged with the murders of a vacationing family, might be more than meets the eye.\n\n\n\n\n\n\n\n\nGeneral\n\n\n\n\nFormat                                   : MPEG-4\nFile size                                : 821 MiB\nDuration                                 : 1h 32mn\nOverall bit rate mode                    : Variable\nOverall bit rate                         : 1 236 Kbps\nMovie name                               : Wer\nGenre                                    : Fantasy &amp; Horror &amp; Mystery &amp; Thriller\nDescription                              : A defense attorney begins to suspect that her client, who is charged with the murders of a vacationing family, might be more than meets the eye.\nRecorded date                            : 2013-11-16\nCopyright                                : F**k the MPAA\nTitle/Sort                               : Wer\nHDVideo                                  : Yes\nContentRating                            : mpaa|R|\n\n\n\n\n\nVideo\n\n\n\nFormat                                   : AVC\nFormat/Info                              : Advanced Video Codec\nFormat profile                           : &lt;a class=&quot;__cf_email__&quot; href=&quot;/cdn-cgi/l/email-protection&quot; data-cfemail=&quot;a3eec2cacde3ef978d93&quot;&gt;[email&amp;#160;protected]&lt;/a&gt;&lt;script cf-hash='f9e31' type=&quot;text/javascript&quot;&gt;\n/* &lt;![CDATA[ */!function(){try{var t=&quot;currentScript&quot;in document?document.currentScript:function(){for(var t=document.getElementsByTagName(&quot;script&quot;),e=t.length;e--;)if(t[e].getAttribute(&quot;cf-hash&quot;))return t[e]}();if(t&amp;&amp;t.previousSibling){var e,r,n,i,c=t.previousSibling,a=c.getAttribute(&quot;data-cfemail&quot;);if(a){for(e=&quot;&quot;,r=parseInt(a.substr(0,2),16),n=2;a.length-n;n+=2)i=parseInt(a.substr(n,2),16)^r,e+=String.fromCharCode(i);e=document.createTextNode(e),c.parentNode.replaceChild(e,c)}}}catch(u){}}();/* ]]&gt; */&lt;/script&gt;\nCodec ID/Info                            : Advanced Video Coding\nDuration                                 : 1h 32mn\nBit rate                                 : 1 040 Kbps\nMaximum bit rate                         : 8 820 Kbps\nWidth                                    : 1 280 pixels\nHeight                                   : 718 pixels\nDisplay aspect ratio                     : 16:9\nFrame rate mode                          : Constant\nFrame rate                               : 23.976 fps\nScan type                                : Progressive\nStream size                              : 691 MiB (84%)\nWriting library                          : x264 core \nLanguage                                 : English\n\n\n\n\n\nAudio\n\n\n\nFormat                                   : AAC\nFormat/Info                              : Advanced Audio Codec\nDuration                                 : 1h 32mn\nBit rate mode                            : Variable\nBit rate                                 : 192 Kbps\nMaximum bit rate                         : 308 Kbps\nOriginal Channel count                   : 6 channels\nChannel positions                        : Front: L C R, Side: L R, LFE\nSampling rate                            : 48.0 KHz\nCompression mode                         : Lossy\nStream size                              : 128 MiB (16%)\nLanguage                                 : English\n\n\n\n\nPLEASE  SEED FOR AS LONG AS POSSIBLE TO KEEP THE TORRENT ALIVE :-)","torrent":{"xt":"urn:btih:371c2eda10cd62ef3930a6884f2fd900570644ca","amp;dn":"Wer.2013.720p.H264.AAC.5.1ch.MP4.Raven","amp;tr":["udp%3A%2F%2Ftracker.openbittorrent.com%3A80","udp%3A%2F%2Fopen.demonii.com%3A1337","udp%3A%2F%2Ftracker.coppersurfer.tk%3A6969","udp%3A%2F%2Fexodus.desync.com%3A6969"],"infoHash":"371c2eda10cd62ef3930a6884f2fd900570644ca","infoHashBuffer":{"type":"Buffer","data":[55,28,46,218,16,205,98,239,57,48,166,136,79,47,217,0,87,6,68,202]},"announce":[],"urlList":[]}}